;PTH Drill file created by EasyEDA 
M48
METRIC,LZ,000.000
;Holesize 1 = 0.600 METRIC
T01C0.600
;Holesize 2 = 0.890 METRIC
T02C0.890
;Holesize 3 = 0.891 METRIC
T03C0.891
;Holesize 4 = 0.914 METRIC
T04C0.914
;Holesize 5 = 0.915 METRIC
T05C0.915
;Holesize 6 = 1.101 METRIC
T06C1.101
;Holesize 7 = 1.501 METRIC
T07C1.501
%
G05
G90
T01
X006858Y061722
X009357Y061722
X034798Y061976
X037297Y061976
X062738Y061976
X065237Y061976
T02
X073152Y062738
X075692Y062738
X078232Y062738
X080772Y062738
X045212Y062738
X047752Y062738
X050292Y062738
X052832Y062738
X024892Y062738
T03
X011938Y055118
X009398Y055118
X006858Y055118
X014478Y055118
X017018Y055118
X019558Y055118
X022098Y055118
X024638Y055118
X024638Y042418
X022098Y042418
X019558Y042418
X017018Y042418
X014478Y042418
X011938Y042418
X009398Y042418
X006858Y042418
X039878Y055372
X037338Y055372
X034798Y055372
X042418Y055372
X044958Y055372
X047498Y055372
X050038Y055372
X052578Y055372
X052578Y042672
X050038Y042672
X047498Y042672
X044958Y042672
X042418Y042672
X039878Y042672
X037338Y042672
X034798Y042672
X067818Y055372
X065278Y055372
X062738Y055372
X070358Y055372
X072898Y055372
X075438Y055372
X077978Y055372
X080518Y055372
X080518Y042672
X077978Y042672
X075438Y042672
X072898Y042672
X070358Y042672
X067818Y042672
X065278Y042672
X062738Y042672
X058674Y027940
X066294Y027940
X055372Y024130
X062992Y024130
X017272Y062738
X019812Y062738
X022352Y062738
X009398Y038521
X011938Y038521
X014478Y038521
X009398Y035981
X011938Y035981
X014478Y035981
X041402Y038521
X043942Y038521
X046482Y038521
X041402Y035981
X043942Y035981
X046482Y035981
X065278Y038521
X067818Y038521
X070358Y038521
X065278Y035981
X067818Y035981
X070358Y035981
X066294Y024130
X068834Y024130
X069342Y027940
X071882Y027940
X051562Y009652
X051562Y007112
X070866Y009652
X070866Y007112
T04
X045212Y010160
T05
X045212Y025400
X042672Y025400
X040132Y025400
X037592Y025400
X035052Y025400
X032512Y025400
X029972Y025400
X027432Y025400
X024892Y025400
X022352Y025400
X019812Y025400
X017272Y025400
X014732Y025400
X012192Y025400
X009398Y025400
X042672Y010160
X040132Y010160
X037592Y010160
X035052Y010160
X032512Y010160
X029972Y010160
X027432Y010160
X024892Y010160
X022352Y010160
X019812Y010160
X017272Y010160
X014732Y010160
X012192Y010160
X009652Y010160
X027432Y003048
X024892Y003048
X022352Y003048
X019812Y003048
X017272Y003048
X035052Y033827
X032512Y033827
X029972Y033827
X066294Y016855
X063754Y016855
X061214Y016855
X058674Y016855
X066294Y019395
X063754Y019395
X061214Y019395
X058674Y019395
T06
X063754Y009652
X061214Y009652
X058674Y009652
T07
X079502Y026670
X079502Y021590
X079502Y013970
X079502Y008890
M30
